# xmcd CD database file
#
# Track frame offsets:
#	151
#	18467
#	44489
#	74860
#	93465
#	104949
#	128277
#	151396
#	175360
#	204276
#	227810
#	245248
#	262512
#	291173
#	307167
#
# Disc length: 4296 seconds
#
# Revision: 0
# Processed by: cddbd v1.4PL0 Copyright (c) Steve Scherf et al.
# Submitted via: CDex 1.50Beta7
#
DISCID=de10c60f
DTITLE=Various Artist - New Age - Bird Song
DYEAR=2002
DGENRE=New Age
TTITLE0=My Love
TTITLE1=Theme Of Love
TTITLE2=The Masquerade
TTITLE3=Stranger From Heaven
TTITLE4=Love You Too Much
TTITLE5=Theme Of "Mahogany"
TTITLE6=And I Love Her
TTITLE7=True Love
TTITLE8=Sun Earth
TTITLE9=Don't Shout
TTITLE10=Without Sunshine
TTITLE11=You Are My Sunshine
TTITLE12=Love Me With All Your Heart
TTITLE13=Pretend
TTITLE14=Love Letter
EXTD=YEAR: 2002
EXTT0=
EXTT1=
EXTT2=
EXTT3=
EXTT4=
EXTT5=
EXTT6=
EXTT7=
EXTT8=
EXTT9=
EXTT10=
EXTT11=
EXTT12=
EXTT13=
EXTT14=
PLAYORDER=
